<svg width="471" height="54" viewBox="0 0 471 54" fill="none" xmlns="http://www.w3.org/2000/svg">
<path d="M35.4274 38L20.5874 2.02H0.637442V52H13.7974V11.96H13.9374L29.7574 52H41.0974L56.9174 11.96H57.0574V52H70.2174V2.02H50.2674L35.4274 38ZM76.9292 27.01C76.9292 37.44 81.1292 53.4 108.009 53.4C134.889 53.4 139.089 37.44 139.089 27.01C139.089 16.58 134.889 0.619998 108.009 0.619998C81.1292 0.619998 76.9292 16.58 76.9292 27.01ZM91.3492 27.01C91.3492 19.24 95.6892 10.14 108.009 10.14C120.329 10.14 124.669 19.24 124.669 27.01C124.669 34.78 120.329 43.88 108.009 43.88C95.6892 43.88 91.3492 34.78 91.3492 27.01ZM159.413 11.54H173.273C183.633 11.54 187.553 17.28 187.553 26.52C187.553 37.09 183.493 42.48 174.533 42.48H159.413V11.54ZM145.833 52H178.173C193.853 52 201.553 42.06 201.553 27.01C201.553 11.96 194.133 2.02 176.983 2.02H145.833V52ZM251.479 36.88H251.339L225.089 2.02H209.339V52H222.499V17.14H222.639L249.869 52H264.639V2.02H251.479V36.88ZM274.143 52H287.723V2.02H274.143V52ZM310.829 23.51V2.02H297.249V52H310.829V37.16L318.739 30.37L335.749 52H354.089L329.379 22.11L352.339 2.02H334.069L310.829 23.51ZM371.737 23.51V2.02H358.157V52H371.737V37.16L379.647 30.37L396.657 52H414.997L390.287 22.11L413.247 2.02H394.977L371.737 23.51ZM434.745 52H448.325V34.57L470.445 2.02H454.485L441.535 23.79L428.585 2.02H412.625L434.745 34.57V52Z" fill="white"/>
</svg>
